<?xml version="1.0" encoding="UTF-8" standalone="no"?>
<svg
   xmlns:dc="http://purl.org/dc/elements/1.1/"
   xmlns:cc="http://creativecommons.org/ns#"
   xmlns:rdf="http://www.w3.org/1999/02/22-rdf-syntax-ns#"
   xmlns:svg="http://www.w3.org/2000/svg"
   xmlns="http://www.w3.org/2000/svg"
   viewBox="0 0 1440 1406.6667"
   height="1406.6667"
   width="1440"
   xml:space="preserve"
   id="svg2"
   version="1.1"><metadata
     id="metadata8"><rdf:RDF><cc:Work
         rdf:about=""><dc:format>image/svg+xml</dc:format><dc:type
           rdf:resource="http://purl.org/dc/dcmitype/StillImage" /></cc:Work></rdf:RDF></metadata><defs
     id="defs6"><clipPath
       id="clipPath20"
       clipPathUnits="userSpaceOnUse"><path
         id="path18"
         d="M 0,1055 H 1080 V 0 H 0 Z" /></clipPath></defs><g
     transform="matrix(1.3333333,0,0,-1.3333333,0,1406.6667)"
     id="g10"><path
       id="path12"
       style="fill:#0a2471;fill-opacity:1;fill-rule:nonzero;stroke:none"
       d="M 1005.727,65.933 H 74.274 v 931.453 h 931.453 z" /><g
       id="g14"><g
         clip-path="url(#clipPath20)"
         id="g16"><g
           transform="translate(556.8707,646.319)"
           id="g22"><path
             id="path24"
             style="fill:#7d34a0;fill-opacity:1;fill-rule:nonzero;stroke:none"
             d="m 0,0 c 0,0 -26.409,13.615 -79.036,13.615 -39.129,0 -56.18,-37.484 -56.18,-37.484 0,0 75.082,-26.166 135.216,23.869" /></g><g
           transform="translate(593.7716,712.1956)"
           id="g26"><path
             id="path28"
             style="fill:#8ed0f2;fill-opacity:1;fill-rule:nonzero;stroke:none"
             d="m 0,0 v 85.835 h 10.477 c 13.227,0 23.949,10.722 23.949,23.948 0,13.226 -10.722,23.949 -23.949,23.949 h -141.445 c -13.227,0 -23.949,-10.723 -23.949,-23.949 0,-13.226 10.722,-23.948 23.949,-23.948 h 11.225 V -0.01 c -55.407,-23.375 -94.298,-78.204 -94.298,-142.118 0,-85.152 69.03,-154.181 154.181,-154.181 85.152,0 154.181,69.029 154.181,154.181 C 94.321,-78.205 55.42,-23.37 0,0" /></g><g
           transform="translate(536.1455,743.3975)"
           id="g30"><path
             id="path32"
             style="fill:#ae4bd2;fill-opacity:1;fill-rule:nonzero;stroke:none"
             d="m 0,0 c 0,-13.226 -10.722,-23.948 -23.949,-23.948 -13.226,0 -23.948,10.722 -23.948,23.948 0,13.226 10.722,23.949 23.948,23.949 C -10.722,23.949 0,13.226 0,0" /></g><g
           transform="translate(574.8418,699.6946)"
           id="g34"><path
             id="path36"
             style="fill:#ae4bd2;fill-opacity:1;fill-rule:nonzero;stroke:none"
             d="m 0,0 c 0,-8.145 -6.603,-14.748 -14.748,-14.748 -8.145,0 -14.748,6.603 -14.748,14.748 0,8.145 6.603,14.748 14.748,14.748 C -6.603,14.748 0,8.145 0,0" /></g><g
           transform="translate(570.0912,790.172)"
           id="g38"><path
             id="path40"
             style="fill:#ae4bd2;fill-opacity:1;fill-rule:nonzero;stroke:none"
             d="m 0,0 c 0,-12.606 -10.22,-22.826 -22.826,-22.826 -12.606,0 -22.826,10.22 -22.826,22.826 0,12.606 10.22,22.826 22.826,22.826 C -10.22,22.826 0,12.606 0,0" /></g><g
           transform="translate(661.3467,570.0676)"
           id="g42"><path
             id="path44"
             style="fill:#b048d3;fill-opacity:1;fill-rule:nonzero;stroke:none"
             d="m 0,0 c 0,69.147 -47.627,124.709 -99.308,78.771 -55.881,-49.673 -138.151,-26.389 -138.151,-26.389 0,0 -12.944,-19.063 -12.944,-52.382 0,-69.147 56.055,-125.201 125.202,-125.201 C -56.055,-125.201 0,-69.147 0,0" /></g><g
           transform="translate(559.1042,646.319)"
           id="g46"><path
             id="path48"
             style="fill:#7d34a0;fill-opacity:1;fill-rule:nonzero;stroke:none"
             d="m 0,0 c 0,0 -26.409,13.615 -79.036,13.615 -39.129,0 -56.18,-37.484 -56.18,-37.484 0,0 75.082,-26.166 135.216,23.869" /></g><g
           transform="translate(559.1071,646.319)"
           id="g50"><path
             id="path52"
             style="fill:#df5cf9;fill-opacity:1;fill-rule:nonzero;stroke:none"
             d="M 0,0 C 0,0 38.718,-23.171 88.254,-15.413 70.375,18.505 37.566,33.303 2.934,2.519 1.964,1.656 0.983,0.821 -0.003,0.001 Z" /></g><g
           transform="translate(585.6369,537.8033)"
           id="g54"><path
             id="path56"
             style="fill:#ffffff;fill-opacity:1;fill-rule:nonzero;stroke:none"
             d="M 0,0 V 24.153 H -39.648 V 63.802 H -63.802 V 24.153 H -103.45 V 0 h 39.648 v -39.648 h 24.154 V 0 Z" /></g><g
           transform="translate(283.2251,306.4766)"
           id="g58"><path
             id="path60"
             style="fill:#ffffff;fill-opacity:1;fill-rule:nonzero;stroke:none"
             d="m 0,0 -2.901,-11.659 c -3.706,1.983 -8.783,3.013 -13.215,3.013 -11.926,0 -20.468,-9.2 -20.468,-23.397 V -74.08 H -48.591 V 1.031 h 11.926 V -9.518 c 5.238,7.694 13.296,12.056 22.644,12.056 C -8.542,2.538 -4.029,1.824 0,0" /></g><g
           transform="translate(283.2251,306.4766)"
           id="g62"><path
             id="path64"
             style="fill:none;stroke:#ffffff;stroke-width:2;stroke-linecap:butt;stroke-linejoin:miter;stroke-miterlimit:10;stroke-dasharray:none;stroke-opacity:1"
             d="m 0,0 -2.901,-11.659 c -3.706,1.983 -8.783,3.013 -13.215,3.013 -11.926,0 -20.468,-9.2 -20.468,-23.397 V -74.08 H -48.591 V 1.031 h 11.926 V -9.518 c 5.238,7.694 13.296,12.056 22.644,12.056 C -8.542,2.538 -4.029,1.824 0,0 Z" /></g><g
           transform="translate(295.3159,275.3857)"
           id="g66"><path
             id="path68"
             style="fill:#ffffff;fill-opacity:1;fill-rule:nonzero;stroke:none"
             d="M 0,0 H 48.994 C 47.462,14.038 38.115,23.08 25.142,23.08 11.04,23.08 1.934,13.563 0,0 m 61.242,-5.156 c 0,-1.507 -0.08,-3.093 -0.242,-4.442 H -0.161 c 1.692,-16.18 13.215,-24.507 26.994,-24.507 9.429,0 17.648,3.568 24.175,9.438 l 6.447,-8.091 c -9.509,-8.963 -20.145,-11.738 -31.347,-11.738 -22.563,0 -38.598,15.783 -38.598,39.022 0,23.002 16.116,39.103 37.873,39.103 20.71,0 35.698,-15.942 35.859,-38.785" /></g><g
           transform="translate(295.3159,275.3857)"
           id="g70"><path
             id="path72"
             style="fill:none;stroke:#ffffff;stroke-width:2;stroke-linecap:butt;stroke-linejoin:miter;stroke-miterlimit:10;stroke-dasharray:none;stroke-opacity:1"
             d="M 0,0 H 48.994 C 47.462,14.038 38.115,23.08 25.142,23.08 11.04,23.08 1.934,13.563 0,0 Z m 61.242,-5.156 c 0,-1.507 -0.08,-3.093 -0.242,-4.442 H -0.161 c 1.692,-16.18 13.215,-24.507 26.994,-24.507 9.429,0 17.648,3.568 24.175,9.438 l 6.447,-8.091 c -9.509,-8.963 -20.145,-11.738 -31.347,-11.738 -22.563,0 -38.598,15.783 -38.598,39.022 0,23.002 16.116,39.103 37.873,39.103 20.71,0 35.698,-15.942 35.859,-38.785 z" /></g><g
           transform="translate(496.2085,278.9541)"
           id="g74"><path
             id="path76"
             style="fill:#ffffff;fill-opacity:1;fill-rule:nonzero;stroke:none"
             d="m 0,0 v -46.558 h -12.007 v 42.672 c 0,14.277 -8.058,22.684 -22.079,22.684 -12.813,0 -23.369,-8.725 -23.369,-23.001 v -42.355 h -12.006 v 42.672 c 0,14.277 -8.059,22.684 -21.999,22.684 -12.813,0 -23.369,-8.725 -23.369,-23.001 v -42.355 h -12.088 v 75.112 h 11.927 V 17.847 c 6.204,8.962 16.358,12.214 25.705,12.214 13.296,0 23.691,-5.949 28.607,-15.784 6.124,11.66 18.05,15.784 28.767,15.784 C -12.974,30.061 0,18.164 0,0" /></g><g
           transform="translate(496.2085,278.9541)"
           id="g78"><path
             id="path80"
             style="fill:none;stroke:#ffffff;stroke-width:2;stroke-linecap:butt;stroke-linejoin:miter;stroke-miterlimit:10;stroke-dasharray:none;stroke-opacity:1"
             d="m 0,0 v -46.558 h -12.007 v 42.672 c 0,14.277 -8.058,22.684 -22.079,22.684 -12.813,0 -23.369,-8.725 -23.369,-23.001 v -42.355 h -12.006 v 42.672 c 0,14.277 -8.059,22.684 -21.999,22.684 -12.813,0 -23.369,-8.725 -23.369,-23.001 v -42.355 h -12.088 v 75.112 h 11.927 V 17.847 c 6.204,8.962 16.358,12.214 25.705,12.214 13.296,0 23.691,-5.949 28.607,-15.784 6.124,11.66 18.05,15.784 28.767,15.784 C -12.974,30.061 0,18.164 0,0 Z" /></g><g
           transform="translate(520.5498,275.3857)"
           id="g82"><path
             id="path84"
             style="fill:#ffffff;fill-opacity:1;fill-rule:nonzero;stroke:none"
             d="M 0,0 H 48.994 C 47.463,14.038 38.115,23.08 25.142,23.08 11.04,23.08 1.934,13.563 0,0 m 61.242,-5.156 c 0,-1.507 -0.081,-3.093 -0.242,-4.442 H -0.161 c 1.692,-16.18 13.215,-24.507 26.995,-24.507 9.428,0 17.647,3.568 24.174,9.438 l 6.447,-8.091 c -9.509,-8.963 -20.145,-11.738 -31.347,-11.738 -22.563,0 -38.598,15.783 -38.598,39.022 0,23.002 16.116,39.103 37.873,39.103 20.71,0 35.698,-15.942 35.859,-38.785" /></g><g
           transform="translate(520.5498,275.3857)"
           id="g86"><path
             id="path88"
             style="fill:none;stroke:#ffffff;stroke-width:2;stroke-linecap:butt;stroke-linejoin:miter;stroke-miterlimit:10;stroke-dasharray:none;stroke-opacity:1"
             d="M 0,0 H 48.994 C 47.463,14.038 38.115,23.08 25.142,23.08 11.04,23.08 1.934,13.563 0,0 Z m 61.242,-5.156 c 0,-1.507 -0.081,-3.093 -0.242,-4.442 H -0.161 c 1.692,-16.18 13.215,-24.507 26.995,-24.507 9.428,0 17.647,3.568 24.174,9.438 l 6.447,-8.091 c -9.509,-8.963 -20.145,-11.738 -31.347,-11.738 -22.563,0 -38.598,15.783 -38.598,39.022 0,23.002 16.116,39.103 37.873,39.103 20.71,0 35.698,-15.942 35.859,-38.785 z" /></g><g
           transform="translate(600.9717,269.9922)"
           id="g90"><path
             id="path92"
             style="fill:#ffffff;fill-opacity:1;fill-rule:nonzero;stroke:none"
             d="m 0,0 c 0,-15.546 11.121,-27.999 27.317,-27.999 15.875,0 27.157,12.057 27.157,27.999 0,15.862 -11.282,27.919 -27.157,27.919 C 10.96,27.919 0,15.466 0,0 M 53.748,26.332 V 76.618 H 65.755 V -37.596 H 53.748 v 11.184 c -6.043,-7.693 -15.31,-12.691 -27.881,-12.691 -21.434,0 -38.115,16.498 -38.115,39.103 0,22.525 16.681,39.022 38.115,39.022 12.571,0 21.838,-5.076 27.881,-12.69" /></g><g
           transform="translate(600.9717,269.9922)"
           id="g94"><path
             id="path96"
             style="fill:none;stroke:#ffffff;stroke-width:2;stroke-linecap:butt;stroke-linejoin:miter;stroke-miterlimit:10;stroke-dasharray:none;stroke-opacity:1"
             d="m 0,0 c 0,-15.546 11.121,-27.999 27.317,-27.999 15.875,0 27.157,12.057 27.157,27.999 0,15.862 -11.282,27.919 -27.157,27.919 C 10.96,27.919 0,15.466 0,0 Z M 53.748,26.332 V 76.618 H 65.755 V -37.596 H 53.748 v 11.184 c -6.043,-7.693 -15.31,-12.691 -27.881,-12.691 -21.434,0 -38.115,16.498 -38.115,39.103 0,22.525 16.681,39.022 38.115,39.022 12.571,0 21.838,-5.076 27.881,-12.69 z" /></g><path
           id="path98"
           style="fill:#ffffff;fill-opacity:1;fill-rule:nonzero;stroke:#ffffff;stroke-width:2;stroke-linecap:butt;stroke-linejoin:miter;stroke-miterlimit:10;stroke-dasharray:none;stroke-opacity:1"
           d="M 697.351,232.396 H 685.263 V 346.61 h 12.088 z" /><g
           transform="translate(722.5742,275.3857)"
           id="g100"><path
             id="path102"
             style="fill:#ffffff;fill-opacity:1;fill-rule:nonzero;stroke:none"
             d="M 0,0 H 48.994 C 47.463,14.038 38.115,23.08 25.142,23.08 11.04,23.08 1.934,13.563 0,0 m 61.242,-5.156 c 0,-1.507 -0.081,-3.093 -0.242,-4.442 H -0.161 c 1.692,-16.18 13.216,-24.507 26.995,-24.507 9.428,0 17.647,3.568 24.174,9.438 l 6.447,-8.091 c -9.509,-8.963 -20.145,-11.738 -31.347,-11.738 -22.562,0 -38.598,15.783 -38.598,39.022 0,23.002 16.116,39.103 37.873,39.103 20.71,0 35.698,-15.942 35.859,-38.785" /></g><g
           transform="translate(722.5742,275.3857)"
           id="g104"><path
             id="path106"
             style="fill:none;stroke:#ffffff;stroke-width:2;stroke-linecap:butt;stroke-linejoin:miter;stroke-miterlimit:10;stroke-dasharray:none;stroke-opacity:1"
             d="M 0,0 H 48.994 C 47.463,14.038 38.115,23.08 25.142,23.08 11.04,23.08 1.934,13.563 0,0 Z m 61.242,-5.156 c 0,-1.507 -0.081,-3.093 -0.242,-4.442 H -0.161 c 1.692,-16.18 13.216,-24.507 26.995,-24.507 9.428,0 17.647,3.568 24.174,9.438 l 6.447,-8.091 c -9.509,-8.963 -20.145,-11.738 -31.347,-11.738 -22.562,0 -38.598,15.783 -38.598,39.022 0,23.002 16.116,39.103 37.873,39.103 20.71,0 35.698,-15.942 35.859,-38.785 z" /></g><g
           transform="translate(801.627,200.3535)"
           id="g108"><path
             id="path110"
             style="fill:#ffffff;fill-opacity:1;fill-rule:nonzero;stroke:none"
             d="m 0,0 h -13.296 l 28.445,48.303 -35.052,58.851 h 13.457 l 28.445,-47.113 26.914,47.113 h 13.216 z" /></g><g
           transform="translate(801.627,200.3535)"
           id="g112"><path
             id="path114"
             style="fill:none;stroke:#ffffff;stroke-width:2;stroke-linecap:butt;stroke-linejoin:miter;stroke-miterlimit:10;stroke-dasharray:none;stroke-opacity:1"
             d="m 0,0 h -13.296 l 28.445,48.303 -35.052,58.851 h 13.457 l 28.445,-47.113 26.914,47.113 h 13.216 z" /></g><text
           id="text118"
           style="font-variant:normal;font-weight:normal;font-stretch:normal;font-size:161.17210388px;font-family:'MarkProTest Font';-inkscape-font-specification:MarkPro;writing-mode:lr-tb;fill:#ffffff;fill-opacity:1;fill-rule:nonzero;stroke:none"
           transform="matrix(1,0,0,-0.98418461,220.5327,-133.5859)"><tspan
             id="tspan116"
             y="0"
             x="0 53.992653 134.5787 279.15009 359.73611 450.47601 481.09872 559.34778">remedley</tspan></text>
<g
           transform="translate(269.2065,-56.9707)"
           id="g120"><path
             id="path122"
             style="fill:none;stroke:#ffffff;stroke-width:1;stroke-linecap:butt;stroke-linejoin:miter;stroke-miterlimit:10;stroke-dasharray:none;stroke-opacity:1"
             d="m 0,0 c -9.348,0 -17.406,-4.362 -22.645,-12.056 v 10.549 h -11.926 v -75.108 h 12.007 v 42.035 c 0,14.196 8.542,23.396 20.469,23.396 4.432,0 9.509,-1.03 13.216,-3.013 l 2.901,11.659 C 9.993,-0.714 5.48,0 0,0 Z" /></g><g
           transform="translate(320.7017,-56.9707)"
           id="g124"><path
             id="path126"
             style="fill:none;stroke:#ffffff;stroke-width:1;stroke-linecap:butt;stroke-linejoin:miter;stroke-miterlimit:10;stroke-dasharray:none;stroke-opacity:1"
             d="m 0,0 c -21.758,0 -37.875,-16.101 -37.875,-39.101 0,-23.238 16.036,-39.021 38.6,-39.021 11.202,0 21.839,2.775 31.348,11.738 l -6.447,8.09 c -6.527,-5.869 -14.747,-9.438 -24.175,-9.438 -13.781,0 -25.305,8.328 -26.997,24.507 h 61.165 c 0.161,1.348 0.242,2.934 0.242,4.442 C 35.7,-15.942 20.71,0 0,0 Z m -0.242,-10.549 c 12.974,0 22.323,-9.041 23.854,-23.079 h -48.997 c 1.934,13.562 11.041,23.079 25.143,23.079 z" /></g><g
           transform="translate(464.3042,-56.9707)"
           id="g128"><path
             id="path130"
             style="fill:none;stroke:#ffffff;stroke-width:1;stroke-linecap:butt;stroke-linejoin:miter;stroke-miterlimit:10;stroke-dasharray:none;stroke-opacity:1"
             d="M 0,0 C -10.718,0 -22.645,-4.124 -28.77,-15.783 -33.685,-5.948 -44.081,0 -57.377,0 -66.726,0 -76.879,-3.252 -83.084,-12.214 v 10.707 h -11.927 v -75.108 h 12.088 v 42.352 c 0,14.277 10.556,23 23.37,23 13.941,0 22,-8.407 22,-22.682 v -42.67 h 12.007 v 42.352 c 0,14.277 10.557,23 23.37,23 14.022,0 22.081,-8.407 22.081,-22.682 v -42.67 H 31.912 V -30.06 C 31.912,-11.897 18.937,0 0,0 Z" /></g><g
           transform="translate(545.9355,-56.9707)"
           id="g132"><path
             id="path134"
             style="fill:none;stroke:#ffffff;stroke-width:1;stroke-linecap:butt;stroke-linejoin:miter;stroke-miterlimit:10;stroke-dasharray:none;stroke-opacity:1"
             d="m 0,0 c -21.758,0 -37.875,-16.101 -37.875,-39.101 0,-23.238 16.036,-39.021 38.601,-39.021 11.201,0 21.838,2.775 31.347,11.738 l -6.447,8.09 c -6.527,-5.869 -14.747,-9.438 -24.176,-9.438 -13.78,0 -25.304,8.328 -26.996,24.507 h 61.165 c 0.161,1.348 0.242,2.934 0.242,4.442 C 35.699,-15.942 20.711,0 0,0 Z m -0.242,-10.549 c 12.974,0 22.323,-9.041 23.853,-23.079 h -48.996 c 1.934,13.562 11.041,23.079 25.143,23.079 z" /></g><g
           transform="translate(626.8418,-56.9707)"
           id="g136"><path
             id="path138"
             style="fill:none;stroke:#ffffff;stroke-width:1;stroke-linecap:butt;stroke-linejoin:miter;stroke-miterlimit:10;stroke-dasharray:none;stroke-opacity:1"
             d="m 0,0 c -21.437,0 -38.117,-16.497 -38.117,-39.021 0,-22.604 16.68,-39.101 38.117,-39.101 12.571,0 21.839,4.996 27.883,12.689 V -76.615 H 39.89 V 37.594 H 27.883 V -12.69 C 21.839,-5.076 12.571,0 0,0 Z m 1.45,-11.104 c 15.875,0 27.157,-12.055 27.157,-27.917 0,-15.942 -11.282,-27.998 -27.157,-27.998 -16.198,0 -27.318,12.453 -27.318,27.998 0,15.465 10.959,27.917 27.318,27.917 z" /></g><g
           transform="translate(697.3516,-19.377)"
           id="g140"><path
             id="path142"
             style="fill:none;stroke:#ffffff;stroke-width:1;stroke-linecap:butt;stroke-linejoin:miter;stroke-miterlimit:10;stroke-dasharray:none;stroke-opacity:1"
             d="M 0,0 H -12.088 V -114.209 H 0 Z" /></g><g
           transform="translate(747.96,-56.9707)"
           id="g144"><path
             id="path146"
             style="fill:none;stroke:#ffffff;stroke-width:1;stroke-linecap:butt;stroke-linejoin:miter;stroke-miterlimit:10;stroke-dasharray:none;stroke-opacity:1"
             d="m 0,0 c -21.758,0 -37.875,-16.101 -37.875,-39.101 0,-23.238 16.036,-39.021 38.601,-39.021 11.201,0 21.838,2.775 31.347,11.738 l -6.447,8.09 c -6.527,-5.869 -14.747,-9.438 -24.176,-9.438 -13.78,0 -25.304,8.328 -26.996,24.507 h 61.165 c 0.161,1.348 0.242,2.934 0.242,4.442 C 35.699,-15.942 20.711,0 0,0 Z m -0.242,-10.549 c 12.974,0 22.323,-9.041 23.853,-23.079 h -48.996 c 1.935,13.562 11.04,23.079 25.143,23.079 z" /></g><g
           transform="translate(863.7598,-58.4775)"
           id="g148"><path
             id="path150"
             style="fill:none;stroke:#ffffff;stroke-width:1;stroke-linecap:butt;stroke-linejoin:miter;stroke-miterlimit:10;stroke-dasharray:none;stroke-opacity:1"
             d="M 0,0 H -13.216 L -40.132,-47.111 -68.578,0 h -13.458 l 35.055,-58.85 -28.447,-48.3 h 13.296 z" /></g></g></g></g></svg>