<?xml version="1.0" encoding="utf-8"?>
<!-- Generator: Adobe Illustrator 19.0.0, SVG Export Plug-In . SVG Version: 6.00 Build 0)  -->
<svg version="1.1" id="Layer_1" xmlns="http://www.w3.org/2000/svg" xmlns:xlink="http://www.w3.org/1999/xlink" x="0px" y="0px"
	 viewBox="0 0 1080 1055" style="enable-background:new 0 0 1080 1055;" xml:space="preserve">
<style type="text/css">
	.st0{fill:#0A2471;}
	.st1{fill:#7D34A0;}
	.st2{fill:#8ED0F2;}
	.st3{fill:#AE4BD2;}
	.st4{fill:#B048D3;}
	.st5{fill:#DF5CF9;}
	.st6{fill:#FFFFFF;}
	.st7{fill:#FFFFFF;stroke:#FFFFFF;stroke-width:2;stroke-miterlimit:10;}
	.st8{fill:#FFFFFF;stroke:#FFFFFF;stroke-miterlimit:10;}
	.st9{font-family:'MarkPro';}
	.st10{font-size:158.6231px;}
	.st11{letter-spacing:-8.9;}
</style>
<rect x="74.3" y="57.6" class="st0" width="931.5" height="931.5"/>
<path class="st1" d="M556.9,408.7c0,0-26.4-13.6-79-13.6c-39.1,0-56.2,37.5-56.2,37.5S496.7,458.7,556.9,408.7z"/>
<g>
	<g>
		<path class="st2" d="M593.8,342.8V257h10.5c13.2,0,23.9-10.7,23.9-23.9c0-13.2-10.7-23.9-23.9-23.9H462.8
			c-13.2,0-23.9,10.7-23.9,23.9c0,13.2,10.7,23.9,23.9,23.9H474v85.8c-55.4,23.4-94.3,78.2-94.3,142.1c0,85.2,69,154.2,154.2,154.2
			s154.2-69,154.2-154.2C688.1,421,649.2,366.2,593.8,342.8z"/>
		<g>
			<g>
				<circle class="st3" cx="512.2" cy="311.6" r="23.9"/>
				<circle class="st3" cx="560.1" cy="355.3" r="14.7"/>
				<circle class="st3" cx="547.3" cy="264.8" r="22.8"/>
			</g>
		</g>
	</g>
	<g>
		<g>
			<path class="st4" d="M661.3,484.9c0-69.1-47.6-124.7-99.3-78.8c-55.9,49.7-138.2,26.4-138.2,26.4s-12.9,19.1-12.9,52.4
				c0,69.1,56.1,125.2,125.2,125.2S661.3,554.1,661.3,484.9z"/>
			<path class="st1" d="M559.1,408.7c0,0-26.4-13.6-79-13.6c-39.1,0-56.2,37.5-56.2,37.5S499,458.7,559.1,408.7z"/>
			<path class="st5" d="M559.1,408.7c0,0,38.7,23.2,88.3,15.4c-17.9-33.9-50.7-48.7-85.3-17.9C561.1,407,560.1,407.9,559.1,408.7
				L559.1,408.7z"/>
		</g>
		<polygon class="st6" points="585.6,517.2 585.6,493 546,493 546,453.4 521.8,453.4 521.8,493 482.2,493 482.2,517.2 521.8,517.2 
			521.8,556.8 546,556.8 546,517.2 		"/>
	</g>
</g>
<g>
	<path class="st7" d="M283.2,748.5l-2.9,11.7c-3.7-2-8.8-3-13.2-3c-11.9,0-20.5,9.2-20.5,23.4v42h-12v-75.1h11.9V758
		c5.2-7.7,13.3-12.1,22.6-12.1C274.7,746,279.2,746.7,283.2,748.5z"/>
	<path class="st7" d="M356.6,784.8c0,1.5-0.1,3.1-0.2,4.4h-61.2c1.7,16.2,13.2,24.5,27,24.5c9.4,0,17.6-3.6,24.2-9.4l6.4,8.1
		c-9.5,9-20.1,11.7-31.3,11.7c-22.6,0-38.6-15.8-38.6-39c0-23,16.1-39.1,37.9-39.1C341.4,746,356.4,761.9,356.6,784.8z M295.3,779.6
		h49c-1.5-14-10.9-23.1-23.9-23.1C306.4,756.5,297.3,766.1,295.3,779.6z"/>
	<path class="st7" d="M496.2,776v46.6h-12v-42.7c0-14.3-8.1-22.7-22.1-22.7c-12.8,0-23.4,8.7-23.4,23v42.4h-12v-42.7
		c0-14.3-8.1-22.7-22-22.7c-12.8,0-23.4,8.7-23.4,23v42.4h-12.1v-75.1h11.9v10.7c6.2-9,16.4-12.2,25.7-12.2
		c13.3,0,23.7,5.9,28.6,15.8c6.1-11.7,18.1-15.8,28.8-15.8C483.2,746,496.2,757.9,496.2,776z"/>
	<path class="st7" d="M581.8,784.8c0,1.5-0.1,3.1-0.2,4.4h-61.2c1.7,16.2,13.2,24.5,27,24.5c9.4,0,17.6-3.6,24.2-9.4l6.4,8.1
		c-9.5,9-20.1,11.7-31.3,11.7c-22.6,0-38.6-15.8-38.6-39c0-23,16.1-39.1,37.9-39.1C566.6,746,581.6,761.9,581.8,784.8z M520.5,779.6
		h49c-1.5-14-10.9-23.1-23.9-23.1C531.6,756.5,522.5,766.1,520.5,779.6z"/>
	<path class="st7" d="M654.7,758.7v-50.3h12v114.2h-12v-11.2c-6,7.7-15.3,12.7-27.9,12.7c-21.4,0-38.1-16.5-38.1-39.1
		c0-22.5,16.7-39,38.1-39C639.4,746,648.7,751.1,654.7,758.7z M601,785c0,15.5,11.1,28,27.3,28c15.9,0,27.2-12.1,27.2-28
		c0-15.9-11.3-27.9-27.2-27.9C611.9,757.1,601,769.5,601,785z"/>
	<path class="st7" d="M697.4,822.6h-12.1V708.4h12.1V822.6z"/>
	<path class="st7" d="M783.8,784.8c0,1.5-0.1,3.1-0.2,4.4h-61.2c1.7,16.2,13.2,24.5,27,24.5c9.4,0,17.6-3.6,24.2-9.4l6.4,8.1
		c-9.5,9-20.1,11.7-31.3,11.7c-22.6,0-38.6-15.8-38.6-39c0-23,16.1-39.1,37.9-39.1C768.7,746,783.7,761.9,783.8,784.8z M722.6,779.6
		h49c-1.5-14-10.9-23.1-23.9-23.1C733.6,756.5,724.5,766.1,722.6,779.6z"/>
	<path class="st7" d="M801.6,854.6h-13.3l28.4-48.3l-35.1-58.9h13.5l28.4,47.1l26.9-47.1h13.2L801.6,854.6z"/>
</g>
<text transform="matrix(1.0161 0 0 1 220.5329 1188.5857)" class="st8 st9 st10 st11">remedley</text>
</svg>
